<?xml version="1.0" encoding="UTF-8" standalone="no"?>
<!DOCTYPE svg PUBLIC "-//W3C//DTD SVG 1.1//EN" "http://www.w3.org/Graphics/SVG/1.1/DTD/svg11.dtd">
<svg xmlns="http://www.w3.org/2000/svg" xmlns:xl="http://www.w3.org/1999/xlink" version="1.1" viewBox="0 0 100 100" width="100pt" height="100pt" xmlns:dc="http://purl.org/dc/elements/1.1/">
  <metadata> Produced by OmniGraffle 7.3
    <dc:date>2017-04-16 16:31:48 +0000</dc:date>
  </metadata>
  <defs/>
  <g stroke="none" stroke-opacity="1" stroke-dasharray="none" fill="none" fill-opacity="1">
    <title>Canvas 2</title>
    <g>
      <title>Layer 1</title>
      <path d="M 49.17147 39.42797 C 45.923637 28.88908 37.373218 23.122518 26.30407 23.122518 C 9.799771 23.122518 1.5807635 35.848724 1.5807635 50.23199 C 1.5807635 64.151276 9.866054 76.87748 26.30407 76.87748 C 37.70463 76.87748 44.995685 71.64118 49.10519 60.83716 L 38.433735 57.39048 C 36.3127 63.75358 32.136914 66.73629 26.436634 66.73629 C 16.62685 66.73629 13.312735 59.312666 13.312735 50.099423 C 13.312735 40.62105 17.090827 33.19743 27.033175 33.19743 C 32.932302 33.19743 36.84296 37.240653 38.698864 43.007215 Z M 98.41924 61.63255 C 98.41924 53.34726 94.0446 47.912107 82.71033 45.19453 L 76.14838 43.603756 C 70.51438 42.27811 68.26078 40.62105 68.26078 37.96976 C 68.26078 35.318466 71.243484 33.19743 76.8112 33.19743 C 81.71609 33.19743 86.09072 35.45103 88.60945 38.963993 L 97.425 32.203196 C 92.78524 26.436634 85.69303 23.122518 76.8112 23.122518 C 63.22332 23.122518 56.59509 30.01588 56.59509 38.367452 C 56.59509 48.50865 64.74782 52.087893 72.105155 53.811234 L 79.59506 55.46829 C 83.70456 56.396244 86.75355 58.0533 86.75355 61.63255 C 86.75355 64.88038 83.83713 66.93513 77.73915 66.670004 C 72.43657 66.47116 66.86885 63.75358 63.62102 59.1801 L 55.13688 66.00718 C 60.37318 72.701695 69.255015 76.8112 77.67287 76.8112 C 91.92357 76.8112 98.41924 70.18297 98.41924 61.63255 Z" stroke="black" stroke-linecap="round" stroke-linejoin="round" stroke-width="3"/>
    </g>
  </g>
</svg>
